<svg xmlns="http://www.w3.org/2000/svg" width="28.281" height="27.024" viewBox="0 0 28.281 27.024">
  <path id="linkedin_ic" d="M28.281,26.126V36.582H22.219V26.827c0-2.451-.877-4.123-3.071-4.123a3.317,3.317,0,0,0-3.11,2.217,4.148,4.148,0,0,0-.2,1.478V36.582H9.774s.082-16.522,0-18.234h6.063v2.585c-.012.019-.028.04-.04.059h.04v-.059A6.02,6.02,0,0,1,21.3,17.919C25.29,17.919,28.281,20.526,28.281,26.126ZM3.431,9.558a3.16,3.16,0,1,0-.08,6.3h.041a3.161,3.161,0,1,0,.04-6.3ZM.36,36.582H6.421V18.348H.36Z" transform="translate(0 -9.558)"/>
</svg>
