<svg xmlns="http://www.w3.org/2000/svg" width="24.001" height="14.087" viewBox="0 0 24.001 14.087"><path d="M12,14.087C4.606,14.087.354,7.889.176,7.625a1.042,1.042,0,0,1,0-1.162C.353,6.2,4.592,0,12,0c7.429,0,11.647,6.2,11.823,6.463a1.039,1.039,0,0,1,0,1.162C23.646,7.889,19.415,14.087,12,14.087Zm0-12c-5.028,0-8.418,3.465-9.643,4.954C3.589,8.531,6.994,12,12,12s8.41-3.466,9.642-4.956C20.411,5.554,17.009,2.087,12,2.087Zm.009,9.29a4.354,4.354,0,0,1-.611-.043A4.289,4.289,0,0,1,8.549,9.646,4.35,4.35,0,0,1,9.4,3.582a4.265,4.265,0,0,1,2.587-.871,4.367,4.367,0,0,1,.613.043,4.283,4.283,0,0,1,2.848,1.687A4.349,4.349,0,0,1,14.6,10.5,4.26,4.26,0,0,1,12.009,11.377ZM12,4.276a2.716,2.716,0,0,0-1.648.554A2.784,2.784,0,0,0,9.8,8.708a2.741,2.741,0,0,0,3.85.548A2.782,2.782,0,0,0,14.2,5.378,2.731,2.731,0,0,0,12.384,4.3,2.778,2.778,0,0,0,12,4.276Zm.819,3a1.044,1.044,0,1,1,0-2.087,1.042,1.042,0,0,1,1.04,1.044,1.042,1.042,0,0,1-1.04,1.043Z" transform="translate(0)" fill="#bfc5d1"/></svg>