<svg xmlns="http://www.w3.org/2000/svg" width="19.873" height="20.253" viewBox="0 0 19.873 20.253"><path d="M10.222,17.35l4.23,2.619a1.625,1.625,0,0,0,2.417-1.813L15.661,13.12v-.2l3.626-3.425A1.691,1.691,0,0,0,18.28,6.472l-4.633-.6a.2.2,0,0,1-.2-.2L11.632,1.033a1.607,1.607,0,0,0-3.022,0L6.6,5.867l-.2.2-4.835.2A1.8,1.8,0,0,0,.552,9.292l3.626,3.425v.2L3.171,17.955a1.593,1.593,0,0,0,2.417,1.813l4.23-2.619C10.02,17.149,10.02,17.149,10.222,17.35Z" transform="translate(-0.052 0.025)" fill="#ffd574"/></svg>