<svg xmlns="http://www.w3.org/2000/svg" width="86" height="86" viewBox="0 0 86 86"><g transform="translate(-81 -1287)"><circle cx="43" cy="43" r="43" transform="translate(81 1287)" fill="rgba(255,73,103,0.85)"/><g transform="translate(111 1315)"><path d="M-.093,3.33l4.1.3,8.3,11.739a3.549,3.549,0,0,0,2.783-3.542C15.2,10.11,13.067,5.6,12.709,4.7c.491-1.47,2.61-1.082,3.593-1.063,7.59.152,7.641-2.226,7.641-2.226A11.327,11.327,0,0,0,25-5.981c-.6-2.526-2.975-4.172-3.689-4.908-1.619-1.67-12.346-2.884-16.647-.4S-.093,3.33-.093,3.33Z" transform="translate(1 12.704)" fill="#fff"/><path d="M25.178,15.461a5.579,5.579,0,0,1-4.094,1.65H15.889a1.289,1.289,0,0,0-1.161.428,1.365,1.365,0,0,0,.122,1.344l1.039,1.833a6.472,6.472,0,0,1,.733,5.133,6.084,6.084,0,0,1-3.178,3.483h-.611L4.522,17.111H0L1.589,6.906A7.785,7.785,0,0,1,9.289,0H20.35c1.467,0,6.356,4.033,6.539,9.778A7.4,7.4,0,0,1,25.178,15.461Zm.489-5.683c-.244-5.194-4.522-8.494-5.378-8.556h-11A6.635,6.635,0,0,0,2.811,7.089l-1.467,8.8H5.256l8.067,12.039A4.45,4.45,0,0,0,15.4,25.483a5.4,5.4,0,0,0-.611-4.156L13.75,19.433a2.571,2.571,0,0,1-.061-2.567,2.491,2.491,0,0,1,2.2-1.039h5.194a4.517,4.517,0,0,0,3.239-1.283C25.3,13.567,25.728,11.978,25.667,9.778Z" transform="translate(0 0.04)" fill="#fff"/></g></g></svg>