<svg xmlns="http://www.w3.org/2000/svg" width="86" height="86" viewBox="0 0 86 86"><g transform="translate(-81 -1287)"><path d="M43,0A43,43,0,1,1,0,43,43,43,0,0,1,43,0Z" transform="translate(81 1287)" fill="rgba(80,123,252,0.85)"/><g transform="translate(108 1315)"><g transform="translate(0 0.338)"><path d="M26.365,32.541H3.473A3.472,3.472,0,0,1,0,29.068V5.973A3.472,3.472,0,0,1,3.473,2.5h12.7V3.851H3.473A2.125,2.125,0,0,0,1.351,5.973V29.055a2.125,2.125,0,0,0,2.122,2.122H26.352a2.125,2.125,0,0,0,2.122-2.122V21.338h1.351v7.716A3.463,3.463,0,0,1,26.365,32.541Z" transform="translate(0 -2.5)" fill="#fff"/></g><g transform="translate(7.304)"><path d="M54.734,24.527a.686.686,0,0,1-.486-.2.7.7,0,0,1-.176-.662l2.135-7.487a.671.671,0,0,1,.176-.3L72.058.2a.688.688,0,0,1,.473-.2A.634.634,0,0,1,73,.2L78.45,5.649a.688.688,0,0,1,.2.473.634.634,0,0,1-.2.473L62.774,22.284a.671.671,0,0,1-.3.176L54.909,24.5A.429.429,0,0,1,54.734,24.527Zm2.716-7.811-1.757,6.176L61.937,21.2,77.031,6.122,72.545,1.635Z" transform="translate(-54.052)" fill="#fff"/></g><g transform="translate(10.199 15.319)"><rect width="8.311" height="1.351" transform="translate(0.956 0) rotate(45)" fill="#fff"/></g></g></g></svg>