<svg xmlns="http://www.w3.org/2000/svg" width="27.024" height="27.024" viewBox="0 0 27.024 27.024">
  <path id="spotify_ic" d="M13.512,0A13.512,13.512,0,1,0,27.024,13.512,13.565,13.565,0,0,0,13.512,0Zm5,20.1a19.8,19.8,0,0,0-11.39-1.33l-.278-1.558a21.358,21.358,0,0,1,12.3,1.436Zm2.393-4.133A24.823,24.823,0,0,0,5.79,14.185l-.344-1.546.04-.008a26.429,26.429,0,0,1,16.083,1.895Zm1.348-4.6A29.807,29.807,0,0,0,5.5,9.407l-.274-1.56A31.417,31.417,0,0,1,22.882,9.913Zm0,0" transform="translate(0 0)"/>
</svg>
