<svg xmlns="http://www.w3.org/2000/svg" xmlns:xlink="http://www.w3.org/1999/xlink" width="82.477" height="82.477" viewBox="0 0 82.477 82.477"><defs><filter id="a" x="0" y="0" width="82.477" height="82.477" filterUnits="userSpaceOnUse"><feOffset dy="5" input="SourceAlpha"/><feGaussianBlur stdDeviation="5" result="b"/><feFlood flood-color="#fc6472" flood-opacity="0.502"/><feComposite operator="in" in2="b"/><feComposite in="SourceGraphic"/></filter></defs><g transform="translate(-289 -132.248)"><g transform="matrix(1, 0, 0, 1, 289, 132.25)" filter="url(#a)"><path d="M3.936,0H48.541a3.936,3.936,0,0,1,3.936,3.936V48.541a3.936,3.936,0,0,1-3.936,3.936H3.936A3.936,3.936,0,0,1,0,48.541V3.936A3.936,3.936,0,0,1,3.936,0Z" transform="translate(15 10)" fill="#fc6472"/></g><g transform="translate(313.184 154.055)"><g transform="translate(1.334 7.125)"><rect width="1.901" height="14.732" transform="translate(0 2.255)" fill="#fff"/><path d="M87.515,157.08a4.857,4.857,0,0,1-1.877-.375l-7.476-3.115a4.867,4.867,0,0,1-3-4.5V133.171H99.871v15.914a4.867,4.867,0,0,1-3,4.5L89.392,156.7A4.853,4.853,0,0,1,87.515,157.08ZM77.06,135.072v14.014a2.971,2.971,0,0,0,1.833,2.75l7.476,3.115a2.979,2.979,0,0,0,2.292,0l7.476-3.115a2.971,2.971,0,0,0,1.833-2.75V135.072Z" transform="translate(-71.357 -133.171)" fill="#fff"/></g><path d="M29.966,42.861l-15.4,7.3a1.136,1.136,0,0,0,0,2.054l15.4,7.3a1.136,1.136,0,0,0,.973,0l15.4-7.3a1.136,1.136,0,0,0,0-2.054l-15.4-7.3A1.136,1.136,0,0,0,29.966,42.861Z" transform="translate(-12.961 -41.805)" fill="#ffdfdc"/><path d="M17.491,47.659a2.1,2.1,0,0,1-.893-.2l-15.4-7.3a2.087,2.087,0,0,1,0-3.772l15.4-7.3a2.123,2.123,0,0,1,1.787,0l15.4,7.3a2.087,2.087,0,0,1,0,3.772l-15.4,7.3A2.1,2.1,0,0,1,17.491,47.659Zm0-16.866a.184.184,0,0,0-.08.018l-15.4,7.3a.186.186,0,0,0,0,.336l15.4,7.3a.186.186,0,0,0,.159,0l15.4-7.3a.186.186,0,0,0,0-.336l-15.4-7.3A.183.183,0,0,0,17.491,30.793Z" transform="translate(0 -28.896)" fill="#fff"/></g></g></svg>