<svg xmlns="http://www.w3.org/2000/svg" width="32" height="31.012" viewBox="0 0 32 31.012"><g transform="translate(-134 -3400)"><g transform="translate(134 3400.012)"><path d="M17,31H11a.945.945,0,0,1-1-1V26a.945.945,0,0,1,1-1,.945.945,0,0,1,1,1v3h4V26a1,1,0,0,1,2,0v4A1,1,0,0,1,17,31Z" fill="#a7e331"/></g><g transform="translate(134 3400.012)"><path d="M14.1,21H14a1,1,0,0,1,0-2h.1a.945.945,0,0,1,1,1A1,1,0,0,1,14.1,21Z" fill="#a7e331"/></g><g transform="translate(134 3400.012)"><path d="M13.9,21.8a.987.987,0,0,1-1-.9c-.3-5.7-1.8-9.2-4.2-10A1.209,1.209,0,0,1,8,9.6,1.04,1.04,0,0,1,9.3,9c3.2,1,5.2,5.1,5.6,11.8a1,1,0,0,1-1,1Z" fill="#a7e331"/></g><g transform="translate(134 3400.012)"><path d="M14.1,21.9h0a1,1,0,0,1-1-1v-.3c0-3.6.1-12,9.5-15.7a.961.961,0,0,1,1.3.6.961.961,0,0,1-.6,1.3c-8.2,3.2-8.2,10.4-8.2,13.8v.3A.945.945,0,0,1,14.1,21.9Z" fill="#a7e331"/></g><g transform="translate(134 3400.012)"><path d="M26.1,8a6.4,6.4,0,0,1-3.7-1.3,1.086,1.086,0,0,1-.4-.9A6.7,6.7,0,0,1,25.5.5a5.9,5.9,0,0,1,6.1.8,1.086,1.086,0,0,1,.4.9,6.339,6.339,0,0,1-3.5,5.3A6.874,6.874,0,0,1,26.1,8Zm-2-2.6a3.569,3.569,0,0,0,3.6.2A4.364,4.364,0,0,0,30,2.5a3.569,3.569,0,0,0-3.6-.2A4.364,4.364,0,0,0,24.1,5.4Z" fill="#a7e331"/></g><g transform="translate(134 3400.012)"><path d="M5.8,12a5.222,5.222,0,0,1-2.1-.4A5.553,5.553,0,0,1,0,7.2a1.086,1.086,0,0,1,.4-.9,6.282,6.282,0,0,1,5.9-1A5.722,5.722,0,0,1,10,9.8a1.022,1.022,0,0,1-.4,1A6.585,6.585,0,0,1,5.8,12ZM2.1,7.5A3.851,3.851,0,0,0,4.4,9.7a4.314,4.314,0,0,0,3.5-.3A3.851,3.851,0,0,0,5.6,7.2,4.754,4.754,0,0,0,2.1,7.5Z" fill="#a7e331"/></g><g transform="translate(134 3400.012)"><path d="M18,27H10a4.951,4.951,0,0,1-5-5V21a.945.945,0,0,1,1-1H22a.945.945,0,0,1,1,1v1A4.951,4.951,0,0,1,18,27ZM7,22a2.946,2.946,0,0,0,3,3h8a2.946,2.946,0,0,0,3-3Z" fill="#a7e331"/></g></g></svg>