<svg xmlns="http://www.w3.org/2000/svg" width="26.316" height="27.024" viewBox="0 0 26.316 27.024">
  <path id="codepen_ic" d="M14.465.354a2.135,2.135,0,0,0-2.4.029L1.328,7.863A2.134,2.134,0,0,0,.414,9.615v8.06a2.132,2.132,0,0,0,.958,1.78L12.287,26.67a2.133,2.133,0,0,0,2.354,0l11.132-7.355a2.135,2.135,0,0,0,.958-1.78V9.616a2.133,2.133,0,0,0-.957-1.779Zm8.315,8.73-4.114,2.763L14.807,9.041l-.025-5.519ZM11.991,3.527v5.4L8.037,11.694,4.093,9.049ZM3.012,11.711l2.553,1.71L3.012,15.207Zm9.046,11.515L4.095,17.885,8.073,15.1l3.985,2.674Zm-1.512-9.849,2.578-1.8,3,1.974-2.662,1.788Zm4.325,9.849V17.777l3.809-2.553,4.1,2.7ZM23.917,15.3l-2.7-1.777,2.7-1.814Z" transform="translate(-0.414 0)"/>
</svg>
