<svg xmlns="http://www.w3.org/2000/svg" width="27.024" height="27.024" viewBox="0 0 27.024 27.024">
  <path id="github_ic" d="M13.512,0A13.565,13.565,0,0,0,0,13.512,14.024,14.024,0,0,0,10.345,27.024v-4.47A3.253,3.253,0,0,1,6.7,20.931c-.307-.518-.851-1.08-1.419-1.038L5.14,18.316A3.256,3.256,0,0,1,8.06,20.122a1.751,1.751,0,0,0,1.016.869,2.128,2.128,0,0,0,1.329-.115,3.711,3.711,0,0,1,.931-1.9h0c-3.519-.525-4.922-2.392-5.479-3.866a6.2,6.2,0,0,1,.963-5.946A.212.212,0,0,0,6.873,9a5.183,5.183,0,0,1,.158-3.46,5.471,5.471,0,0,1,3,1.129l.38.228c.159.095.109.041.268.029a11.467,11.467,0,0,1,2.836-.4,11.516,11.516,0,0,1,2.875.409l.123.012c-.011,0,.033-.008.107-.052C19.36,5.23,19.261,5.773,20,5.534A5.272,5.272,0,0,1,20.151,9c-.08.246,2.378,2.5,1.016,6.11-.557,1.474-1.959,3.342-5.479,3.866h0a3.474,3.474,0,0,1,.99,2.472v5.58A14.024,14.024,0,0,0,27.024,13.512,13.564,13.564,0,0,0,13.512,0Zm0,0" transform="translate(0 0)"/>
</svg>
