<svg xmlns="http://www.w3.org/2000/svg" width="23.269" height="23.686" viewBox="0 0 23.269 23.686">
  <path id="rating-star" d="M11.424,19.4l4.731,2.928a1.817,1.817,0,0,0,2.7-2.027l-1.352-5.632v-.225l4.055-3.83A1.891,1.891,0,0,0,20.435,7.24l-5.181-.676a.221.221,0,0,1-.225-.225L13,1.158a1.8,1.8,0,0,0-3.379,0L7.369,6.564l-.225.225-5.406.225A2.018,2.018,0,0,0,.611,10.394l4.055,3.83v.225L3.54,20.08a1.781,1.781,0,0,0,2.7,2.027l4.731-2.928C11.2,19.179,11.2,19.179,11.424,19.4Z" transform="translate(0.469 0.525)" fill="#ffd574" stroke="#707070" stroke-width="1"/>
</svg>
