<svg xmlns="http://www.w3.org/2000/svg" width="86" height="86" viewBox="0 0 86 86"><g transform="translate(-81 -1287)"><circle cx="43" cy="43" r="43" transform="translate(81 1287)" fill="rgba(46,255,165,0.85)"/><g transform="translate(-3448 74)"><path d="M-.093-.661l4.1-.3L12.3-12.7a3.549,3.549,0,0,1,2.783,3.542c.114,1.721-2.02,6.23-2.378,7.135C13.2-.557,15.319-.945,16.3-.964c7.59-.152,7.641,2.226,7.641,2.226A11.327,11.327,0,0,1,25,8.65c-.6,2.526-2.975,4.172-3.689,4.908-1.619,1.67-12.346,2.884-16.647.4S-.093-.661-.093-.661Z" transform="translate(3560 1255)" fill="#fff"/><path d="M25.178,13.872a5.579,5.579,0,0,0-4.094-1.65H15.889a1.289,1.289,0,0,1-1.161-.428,1.365,1.365,0,0,1,.122-1.344l1.039-1.833a6.472,6.472,0,0,0,.733-5.133A6.084,6.084,0,0,0,13.444,0h-.611L4.522,12.222H0L1.589,22.428a7.785,7.785,0,0,0,7.7,6.906H20.35c1.467,0,6.356-4.033,6.539-9.778A7.4,7.4,0,0,0,25.178,13.872Zm.489,5.683c-.244,5.194-4.522,8.494-5.378,8.556h-11a6.635,6.635,0,0,1-6.478-5.867l-1.467-8.8H5.256L13.322,1.406A4.45,4.45,0,0,1,15.4,3.85a5.4,5.4,0,0,1-.611,4.156L13.75,9.9a2.571,2.571,0,0,0-.061,2.567,2.491,2.491,0,0,0,2.2,1.039h5.194a4.517,4.517,0,0,1,3.239,1.283C25.3,15.767,25.728,17.356,25.667,19.556Z" transform="translate(3559 1241)" fill="#fff"/></g></g></svg>